{
	"asset":{
		"generator":"Khronos glTF Blender I/O v4.1.63",
		"version":"2.0"
	},
	"scene":0,
	"scenes":[
		{
			"name":"Scene",
			"nodes":[
				0,
				1,
				2
			]
		}
	],
	"nodes":[
		{
			"mesh":0,
			"name":"Grip"
		},
		{
			"mesh":1,
			"name":"Receiver",
			"translation":[
				0,
				0.10970880836248398,
				0.15646634995937347
			]
		},
		{
			"mesh":2,
			"name":"Base",
			"translation":[
				0,
				0.05647878721356392,
				0.14724478125572205
			]
		}
	],
	"materials":[
		{
			"doubleSided":true,
			"emissiveFactor":[
				1,
				1,
				1
			],
			"emissiveTexture":{
				"index":0
			},
			"name":"Heft24Solid_material",
			"normalTexture":{
				"index":1
			},
			"pbrMetallicRoughness":{
				"baseColorTexture":{
					"index":2
				},
				"metallicRoughnessTexture":{
					"index":3
				}
			}
		}
	],
	"meshes":[
		{
			"name":"Grip",
			"primitives":[
				{
					"attributes":{
						"POSITION":0,
						"NORMAL":1,
						"TEXCOORD_0":2
					},
					"indices":3,
					"material":0
				}
			]
		},
		{
			"name":"Receiver",
			"primitives":[
				{
					"attributes":{
						"POSITION":4,
						"NORMAL":5,
						"TEXCOORD_0":6
					},
					"indices":7,
					"material":0
				}
			]
		},
		{
			"name":"Base",
			"primitives":[
				{
					"attributes":{
						"POSITION":8,
						"NORMAL":9,
						"TEXCOORD_0":10
					},
					"indices":11,
					"material":0
				}
			]
		}
	],
	"textures":[
		{
			"sampler":0,
			"source":0
		},
		{
			"sampler":0,
			"source":1
		},
		{
			"sampler":0,
			"source":2
		},
		{
			"sampler":0,
			"source":3
		}
	],
	"images":[
		{
			"mimeType":"image/png",
			"name":"Heft24Solid_material_Emission",
			"uri":"Heft24Solid_material_Emission.png"
		},
		{
			"mimeType":"image/png",
			"name":"Heft24Solid_material_Normal",
			"uri":"Heft24Solid_material_Normal.png"
		},
		{
			"mimeType":"image/png",
			"name":"Heft24Solid_material_BaseColor-Heft24Solid_material_Alpha",
			"uri":"Heft24Solid_material_BaseColor-Heft24Solid_material_Alpha.png"
		},
		{
			"mimeType":"image/png",
			"name":"Heft24Solid_material_Metallic-Heft24Solid_material_Roughness",
			"uri":"Heft24Solid_material_Metallic-Heft24Solid_material_Roughness.png"
		}
	],
	"accessors":[
		{
			"bufferView":0,
			"componentType":5126,
			"count":2048,
			"max":[
				0.030416114255785942,
				0.10596451163291931,
				0.09534243494272232
			],
			"min":[
				-0.030416147783398628,
				-0.08885557949542999,
				-0.09143480658531189
			],
			"type":"VEC3"
		},
		{
			"bufferView":1,
			"componentType":5126,
			"count":2048,
			"type":"VEC3"
		},
		{
			"bufferView":2,
			"componentType":5126,
			"count":2048,
			"type":"VEC2"
		},
		{
			"bufferView":3,
			"componentType":5123,
			"count":3192,
			"type":"SCALAR"
		},
		{
			"bufferView":4,
			"componentType":5126,
			"count":232,
			"max":[
				0.017274484038352966,
				0.01405113935470581,
				0.2159155011177063
			],
			"min":[
				-0.01727450080215931,
				-0.014766000211238861,
				-0.18972668051719666
			],
			"type":"VEC3"
		},
		{
			"bufferView":5,
			"componentType":5126,
			"count":232,
			"type":"VEC3"
		},
		{
			"bufferView":6,
			"componentType":5126,
			"count":232,
			"type":"VEC2"
		},
		{
			"bufferView":7,
			"componentType":5123,
			"count":540,
			"type":"SCALAR"
		},
		{
			"bufferView":8,
			"componentType":5126,
			"count":322,
			"max":[
				0.020595526322722435,
				0.04973721131682396,
				0.22438009083271027
			],
			"min":[
				-0.02059551700949669,
				-0.06468378752470016,
				-0.1410762220621109
			],
			"type":"VEC3"
		},
		{
			"bufferView":9,
			"componentType":5126,
			"count":322,
			"type":"VEC3"
		},
		{
			"bufferView":10,
			"componentType":5126,
			"count":322,
			"type":"VEC2"
		},
		{
			"bufferView":11,
			"componentType":5123,
			"count":528,
			"type":"SCALAR"
		}
	],
	"bufferViews":[
		{
			"buffer":0,
			"byteLength":24576,
			"byteOffset":0,
			"target":34962
		},
		{
			"buffer":0,
			"byteLength":24576,
			"byteOffset":24576,
			"target":34962
		},
		{
			"buffer":0,
			"byteLength":16384,
			"byteOffset":49152,
			"target":34962
		},
		{
			"buffer":0,
			"byteLength":6384,
			"byteOffset":65536,
			"target":34963
		},
		{
			"buffer":0,
			"byteLength":2784,
			"byteOffset":71920,
			"target":34962
		},
		{
			"buffer":0,
			"byteLength":2784,
			"byteOffset":74704,
			"target":34962
		},
		{
			"buffer":0,
			"byteLength":1856,
			"byteOffset":77488,
			"target":34962
		},
		{
			"buffer":0,
			"byteLength":1080,
			"byteOffset":79344,
			"target":34963
		},
		{
			"buffer":0,
			"byteLength":3864,
			"byteOffset":80424,
			"target":34962
		},
		{
			"buffer":0,
			"byteLength":3864,
			"byteOffset":84288,
			"target":34962
		},
		{
			"buffer":0,
			"byteLength":2576,
			"byteOffset":88152,
			"target":34962
		},
		{
			"buffer":0,
			"byteLength":1056,
			"byteOffset":90728,
			"target":34963
		}
	],
	"samplers":[
		{
			"magFilter":9729,
			"minFilter":9987
		}
	],
	"buffers":[
		{
			"byteLength":91784,
			"uri":"Heft24Solid.bin"
		}
	]
}
