{
	"asset":{
		"generator":"Khronos glTF Blender I/O v4.1.63",
		"version":"2.0"
	},
	"scene":0,
	"scenes":[
		{
			"name":"Scene",
			"nodes":[
				0,
				1,
				2,
				3,
				4,
				5
			]
		}
	],
	"nodes":[
		{
			"mesh":0,
			"name":"Stock"
		},
		{
			"mesh":1,
			"name":"Barrel",
			"translation":[
				0,
				0.017801256850361824,
				0.08438683301210403
			]
		},
		{
			"mesh":2,
			"name":"Magazine",
			"translation":[
				0,
				-0.011454274877905846,
				0.1835053265094757
			]
		},
		{
			"mesh":3,
			"name":"Guard",
			"translation":[
				0,
				0.036388810724020004,
				0.06511757522821426
			]
		},
		{
			"mesh":4,
			"name":"Trigger",
			"translation":[
				0,
				-0.029212940484285355,
				-0.16325266659259796
			]
		},
		{
			"mesh":5,
			"name":"Pump",
			"translation":[
				0,
				-0.009889911860227585,
				0.17054438591003418
			]
		}
	],
	"materials":[
		{
			"doubleSided":true,
			"emissiveFactor":[
				1,
				1,
				1
			],
			"emissiveTexture":{
				"index":0
			},
			"name":"LMB-21_material",
			"normalTexture":{
				"index":1
			},
			"pbrMetallicRoughness":{
				"baseColorTexture":{
					"index":2
				},
				"metallicRoughnessTexture":{
					"index":3
				}
			}
		}
	],
	"meshes":[
		{
			"name":"Stock",
			"primitives":[
				{
					"attributes":{
						"POSITION":0,
						"NORMAL":1,
						"TEXCOORD_0":2
					},
					"indices":3,
					"material":0
				}
			]
		},
		{
			"name":"Barrel",
			"primitives":[
				{
					"attributes":{
						"POSITION":4,
						"NORMAL":5,
						"TEXCOORD_0":6
					},
					"indices":7,
					"material":0
				}
			]
		},
		{
			"name":"Magazine",
			"primitives":[
				{
					"attributes":{
						"POSITION":8,
						"NORMAL":9,
						"TEXCOORD_0":10
					},
					"indices":11,
					"material":0
				}
			]
		},
		{
			"name":"Guard",
			"primitives":[
				{
					"attributes":{
						"POSITION":12,
						"NORMAL":13,
						"TEXCOORD_0":14
					},
					"indices":15,
					"material":0
				}
			]
		},
		{
			"name":"Trigger",
			"primitives":[
				{
					"attributes":{
						"POSITION":16,
						"NORMAL":17,
						"TEXCOORD_0":18
					},
					"indices":19,
					"material":0
				}
			]
		},
		{
			"name":"Pump",
			"primitives":[
				{
					"attributes":{
						"POSITION":20,
						"NORMAL":21,
						"TEXCOORD_0":22
					},
					"indices":23,
					"material":0
				}
			]
		}
	],
	"textures":[
		{
			"sampler":0,
			"source":0
		},
		{
			"sampler":0,
			"source":1
		},
		{
			"sampler":0,
			"source":2
		},
		{
			"sampler":0,
			"source":3
		}
	],
	"images":[
		{
			"mimeType":"image/png",
			"name":"Material.001_Emission",
			"uri":"Material_001_Emission.png"
		},
		{
			"mimeType":"image/png",
			"name":"Material.001_Normal",
			"uri":"Material_001_Normal.png"
		},
		{
			"mimeType":"image/png",
			"name":"Material.001_BaseColor-Material.001_Alpha",
			"uri":"Material_001_BaseColor-Material_001_Alpha.png"
		},
		{
			"mimeType":"image/png",
			"name":"Material.001_Metallic-Material.001_Roughness",
			"uri":"Material_001_Metallic-Material_001_Roughness.png"
		}
	],
	"accessors":[
		{
			"bufferView":0,
			"componentType":5126,
			"count":602,
			"max":[
				0.03029678761959076,
				0.03369542583823204,
				-0.0018195572774857283
			],
			"min":[
				-0.03029678761959076,
				-0.057506263256073,
				-0.33151182532310486
			],
			"type":"VEC3"
		},
		{
			"bufferView":1,
			"componentType":5126,
			"count":602,
			"type":"VEC3"
		},
		{
			"bufferView":2,
			"componentType":5126,
			"count":602,
			"type":"VEC2"
		},
		{
			"bufferView":3,
			"componentType":5123,
			"count":972,
			"type":"SCALAR"
		},
		{
			"bufferView":4,
			"componentType":5126,
			"count":202,
			"max":[
				0.0095704086124897,
				0.009570417925715446,
				0.21763382852077484
			],
			"min":[
				-0.0095704086124897,
				-0.009570417925715446,
				-0.21763382852077484
			],
			"type":"VEC3"
		},
		{
			"bufferView":5,
			"componentType":5126,
			"count":202,
			"type":"VEC3"
		},
		{
			"bufferView":6,
			"componentType":5126,
			"count":202,
			"type":"VEC2"
		},
		{
			"bufferView":7,
			"componentType":5123,
			"count":432,
			"type":"SCALAR"
		},
		{
			"bufferView":8,
			"componentType":5126,
			"count":146,
			"max":[
				0.009845542721450329,
				0.009845550172030926,
				0.1134759783744812
			],
			"min":[
				-0.009845541790127754,
				-0.009845545515418053,
				-0.22623805701732635
			],
			"type":"VEC3"
		},
		{
			"bufferView":9,
			"componentType":5126,
			"count":146,
			"type":"VEC3"
		},
		{
			"bufferView":10,
			"componentType":5126,
			"count":146,
			"type":"VEC2"
		},
		{
			"bufferView":11,
			"componentType":5123,
			"count":240,
			"type":"SCALAR"
		},
		{
			"bufferView":12,
			"componentType":5126,
			"count":381,
			"max":[
				0.03406960144639015,
				0.010858782567083836,
				0.22955957055091858
			],
			"min":[
				-0.03406960144639015,
				-0.07400058954954147,
				-0.2520908713340759
			],
			"type":"VEC3"
		},
		{
			"bufferView":13,
			"componentType":5126,
			"count":381,
			"type":"VEC3"
		},
		{
			"bufferView":14,
			"componentType":5126,
			"count":381,
			"type":"VEC2"
		},
		{
			"bufferView":15,
			"componentType":5123,
			"count":696,
			"type":"SCALAR"
		},
		{
			"bufferView":16,
			"componentType":5126,
			"count":102,
			"max":[
				0.0030733325984328985,
				0.008418741635978222,
				0.01158634852617979
			],
			"min":[
				-0.0030733325984328985,
				-0.018911786377429962,
				-0.00814497098326683
			],
			"type":"VEC3"
		},
		{
			"bufferView":17,
			"componentType":5126,
			"count":102,
			"type":"VEC3"
		},
		{
			"bufferView":18,
			"componentType":5126,
			"count":102,
			"type":"VEC2"
		},
		{
			"bufferView":19,
			"componentType":5123,
			"count":192,
			"type":"SCALAR"
		},
		{
			"bufferView":20,
			"componentType":5126,
			"count":416,
			"max":[
				0.022360846400260925,
				0.018106132745742798,
				0.07547786831855774
			],
			"min":[
				-0.022360846400260925,
				-0.021159010007977486,
				-0.07826802134513855
			],
			"type":"VEC3"
		},
		{
			"bufferView":21,
			"componentType":5126,
			"count":416,
			"type":"VEC3"
		},
		{
			"bufferView":22,
			"componentType":5126,
			"count":416,
			"type":"VEC2"
		},
		{
			"bufferView":23,
			"componentType":5123,
			"count":648,
			"type":"SCALAR"
		}
	],
	"bufferViews":[
		{
			"buffer":0,
			"byteLength":7224,
			"byteOffset":0,
			"target":34962
		},
		{
			"buffer":0,
			"byteLength":7224,
			"byteOffset":7224,
			"target":34962
		},
		{
			"buffer":0,
			"byteLength":4816,
			"byteOffset":14448,
			"target":34962
		},
		{
			"buffer":0,
			"byteLength":1944,
			"byteOffset":19264,
			"target":34963
		},
		{
			"buffer":0,
			"byteLength":2424,
			"byteOffset":21208,
			"target":34962
		},
		{
			"buffer":0,
			"byteLength":2424,
			"byteOffset":23632,
			"target":34962
		},
		{
			"buffer":0,
			"byteLength":1616,
			"byteOffset":26056,
			"target":34962
		},
		{
			"buffer":0,
			"byteLength":864,
			"byteOffset":27672,
			"target":34963
		},
		{
			"buffer":0,
			"byteLength":1752,
			"byteOffset":28536,
			"target":34962
		},
		{
			"buffer":0,
			"byteLength":1752,
			"byteOffset":30288,
			"target":34962
		},
		{
			"buffer":0,
			"byteLength":1168,
			"byteOffset":32040,
			"target":34962
		},
		{
			"buffer":0,
			"byteLength":480,
			"byteOffset":33208,
			"target":34963
		},
		{
			"buffer":0,
			"byteLength":4572,
			"byteOffset":33688,
			"target":34962
		},
		{
			"buffer":0,
			"byteLength":4572,
			"byteOffset":38260,
			"target":34962
		},
		{
			"buffer":0,
			"byteLength":3048,
			"byteOffset":42832,
			"target":34962
		},
		{
			"buffer":0,
			"byteLength":1392,
			"byteOffset":45880,
			"target":34963
		},
		{
			"buffer":0,
			"byteLength":1224,
			"byteOffset":47272,
			"target":34962
		},
		{
			"buffer":0,
			"byteLength":1224,
			"byteOffset":48496,
			"target":34962
		},
		{
			"buffer":0,
			"byteLength":816,
			"byteOffset":49720,
			"target":34962
		},
		{
			"buffer":0,
			"byteLength":384,
			"byteOffset":50536,
			"target":34963
		},
		{
			"buffer":0,
			"byteLength":4992,
			"byteOffset":50920,
			"target":34962
		},
		{
			"buffer":0,
			"byteLength":4992,
			"byteOffset":55912,
			"target":34962
		},
		{
			"buffer":0,
			"byteLength":3328,
			"byteOffset":60904,
			"target":34962
		},
		{
			"buffer":0,
			"byteLength":1296,
			"byteOffset":64232,
			"target":34963
		}
	],
	"samplers":[
		{
			"magFilter":9729,
			"minFilter":9987
		}
	],
	"buffers":[
		{
			"byteLength":65528,
			"uri":"LMB-21.bin"
		}
	]
}
