{
    "asset" : {
        "generator" : "Khronos glTF Blender I/O v3.2.43",
        "version" : "2.0"
    },
    "scene" : 0,
    "scenes" : [
        {
            "name" : "Scene",
            "nodes" : [
                0
            ]
        }
    ],
    "nodes" : [
        {
            "mesh" : 0,
            "name" : "Car",
            "translation" : [
                0,
                0.6843688488006592,
                0.011201164685189724
            ]
        }
    ],
    "materials" : [
        {
            "doubleSided" : true,
            "name" : "Car_body",
            "pbrMetallicRoughness" : {
                "baseColorTexture" : {
                    "index" : 0
                },
                "metallicFactor" : 0,
                "roughnessFactor" : 0.5
            }
        },
        {
            "doubleSided" : true,
            "name" : "Car_decals",
            "pbrMetallicRoughness" : {
                "baseColorTexture" : {
                    "index" : 1
                },
                "metallicFactor" : 0,
                "roughnessFactor" : 0.5
            }
        }
    ],
    "meshes" : [
        {
            "name" : "Cube",
            "primitives" : [
                {
                    "attributes" : {
                        "POSITION" : 0,
                        "NORMAL" : 1,
                        "TEXCOORD_0" : 2
                    },
                    "indices" : 3,
                    "material" : 0
                },
                {
                    "attributes" : {
                        "POSITION" : 4,
                        "NORMAL" : 5,
                        "TEXCOORD_0" : 6
                    },
                    "indices" : 7,
                    "material" : 1
                }
            ]
        }
    ],
    "textures" : [
        {
            "sampler" : 0,
            "source" : 0
        },
        {
            "sampler" : 0,
            "source" : 1
        }
    ],
    "images" : [
        {
            "bufferView" : 4,
            "mimeType" : "image/png",
            "name" : "Body"
        },
        {
            "bufferView" : 9,
            "mimeType" : "image/png",
            "name" : "Car_decals"
        }
    ],
    "accessors" : [
        {
            "bufferView" : 0,
            "componentType" : 5126,
            "count" : 661,
            "max" : [
                1.1830381155014038,
                0.4829252362251282,
                2.477971076965332
            ],
            "min" : [
                -1.1830381155014038,
                -0.1348162442445755,
                -2.587233066558838
            ],
            "type" : "VEC3"
        },
        {
            "bufferView" : 1,
            "componentType" : 5126,
            "count" : 661,
            "type" : "VEC3"
        },
        {
            "bufferView" : 2,
            "componentType" : 5126,
            "count" : 661,
            "type" : "VEC2"
        },
        {
            "bufferView" : 3,
            "componentType" : 5123,
            "count" : 1005,
            "type" : "SCALAR"
        },
        {
            "bufferView" : 5,
            "componentType" : 5126,
            "count" : 6263,
            "max" : [
                1.2036933898925781,
                0.89612877368927,
                2.4968149662017822
            ],
            "min" : [
                -1.2036933898925781,
                -0.6832186579704285,
                -2.6397652626037598
            ],
            "type" : "VEC3"
        },
        {
            "bufferView" : 6,
            "componentType" : 5126,
            "count" : 6263,
            "type" : "VEC3"
        },
        {
            "bufferView" : 7,
            "componentType" : 5126,
            "count" : 6263,
            "type" : "VEC2"
        },
        {
            "bufferView" : 8,
            "componentType" : 5123,
            "count" : 9951,
            "type" : "SCALAR"
        }
    ],
    "bufferViews" : [
        {
            "buffer" : 0,
            "byteLength" : 7932,
            "byteOffset" : 0
        },
        {
            "buffer" : 0,
            "byteLength" : 7932,
            "byteOffset" : 7932
        },
        {
            "buffer" : 0,
            "byteLength" : 5288,
            "byteOffset" : 15864
        },
        {
            "buffer" : 0,
            "byteLength" : 2010,
            "byteOffset" : 21152
        },
        {
            "buffer" : 0,
            "byteLength" : 7980,
            "byteOffset" : 23164
        },
        {
            "buffer" : 0,
            "byteLength" : 75156,
            "byteOffset" : 31144
        },
        {
            "buffer" : 0,
            "byteLength" : 75156,
            "byteOffset" : 106300
        },
        {
            "buffer" : 0,
            "byteLength" : 50104,
            "byteOffset" : 181456
        },
        {
            "buffer" : 0,
            "byteLength" : 19902,
            "byteOffset" : 231560
        },
        {
            "buffer" : 0,
            "byteLength" : 199231,
            "byteOffset" : 251464
        }
    ],
    "samplers" : [
        {
            "magFilter" : 9728,
            "minFilter" : 9984
        }
    ],
    "buffers" : [
        {
            "byteLength" : 450696,
            "uri" : "data:application/octet-stream;base64,"
        }
    ]
}
