{
    "asset" : {
        "generator" : "Khronos glTF Blender I/O v3.2.43",
        "version" : "2.0"
    },
    "scene" : 0,
    "scenes" : [
        {
            "name" : "Scene",
            "nodes" : [
                0
            ]
        }
    ],
    "nodes" : [
        {
            "mesh" : 0,
            "name" : "Sink",
            "translation" : [
                0,
                -0.0013142228126525879,
                0.00173882395029068
            ]
        }
    ],
    "meshes" : [
        {
            "name" : "Cube.001",
            "primitives" : [
                {
                    "attributes" : {
                        "POSITION" : 0,
                        "NORMAL" : 1,
                        "TEXCOORD_0" : 2
                    },
                    "indices" : 3
                }
            ]
        }
    ],
    "accessors" : [
        {
            "bufferView" : 0,
            "componentType" : 5126,
            "count" : 2236,
            "max" : [
                1,
                0.8739381432533264,
                0.36272192001342773
            ],
            "min" : [
                -1,
                -0.3526897430419922,
                -0.7577160596847534
            ],
            "type" : "VEC3"
        },
        {
            "bufferView" : 1,
            "componentType" : 5126,
            "count" : 2236,
            "type" : "VEC3"
        },
        {
            "bufferView" : 2,
            "componentType" : 5126,
            "count" : 2236,
            "type" : "VEC2"
        },
        {
            "bufferView" : 3,
            "componentType" : 5123,
            "count" : 3687,
            "type" : "SCALAR"
        }
    ],
    "bufferViews" : [
        {
            "buffer" : 0,
            "byteLength" : 26832,
            "byteOffset" : 0
        },
        {
            "buffer" : 0,
            "byteLength" : 26832,
            "byteOffset" : 26832
        },
        {
            "buffer" : 0,
            "byteLength" : 17888,
            "byteOffset" : 53664
        },
        {
            "buffer" : 0,
            "byteLength" : 7374,
            "byteOffset" : 71552
        }
    ],
    "buffers" : [
        {
            "byteLength" : 78928,
            "uri" : "data:application/octet-stream;base64,"
        }
    ]
}
