{
	"asset":{
		"generator":"Khronos glTF Blender I/O v4.0.44",
		"version":"2.0"
	},
	"scene":0,
	"scenes":[
		{
			"name":"Scene",
			"nodes":[
				1
			]
		}
	],
	"nodes":[
		{
			"mesh":0,
			"name":"Spinner",
			"translation":[
				0,
				0.10443706810474396,
				0
			]
		},
		{
			"children":[
				0
			],
			"mesh":1,
			"name":"Base"
		}
	],
	"materials":[
		{
			"doubleSided":true,
			"name":"concrete_material",
			"pbrMetallicRoughness":{
				"baseColorTexture":{
					"index":0
				},
				"metallicFactor":0,
				"roughnessFactor":0.5
			}
		}
	],
	"meshes":[
		{
			"name":"Cube.001",
			"primitives":[
				{
					"attributes":{
						"POSITION":0,
						"NORMAL":1,
						"TEXCOORD_0":2
					},
					"indices":3,
					"material":0
				}
			]
		},
		{
			"name":"Cylinder",
			"primitives":[
				{
					"attributes":{
						"POSITION":4,
						"NORMAL":5,
						"TEXCOORD_0":6
					},
					"indices":7,
					"material":0
				}
			]
		}
	],
	"textures":[
		{
			"sampler":0,
			"source":0
		}
	],
	"images":[
		{
			"mimeType":"image/jpeg",
			"name":"concrete_06",
			"uri":"concrete_06.jpg"
		}
	],
	"accessors":[
		{
			"bufferView":0,
			"componentType":5126,
			"count":96,
			"max":[
				0.656855583190918,
				0.03427758812904358,
				0.6005284190177917
			],
			"min":[
				-0.4191219210624695,
				-0.09779614955186844,
				-0.600528359413147
			],
			"type":"VEC3"
		},
		{
			"bufferView":1,
			"componentType":5126,
			"count":96,
			"type":"VEC3"
		},
		{
			"bufferView":2,
			"componentType":5126,
			"count":96,
			"type":"VEC2"
		},
		{
			"bufferView":3,
			"componentType":5123,
			"count":363,
			"type":"SCALAR"
		},
		{
			"bufferView":4,
			"componentType":5126,
			"count":81,
			"max":[
				0.9805932641029358,
				0.10000000149011612,
				0.9805932641029358
			],
			"min":[
				-0.9805932641029358,
				0,
				-0.9805932641029358
			],
			"type":"VEC3"
		},
		{
			"bufferView":5,
			"componentType":5126,
			"count":81,
			"type":"VEC3"
		},
		{
			"bufferView":6,
			"componentType":5126,
			"count":81,
			"type":"VEC2"
		},
		{
			"bufferView":7,
			"componentType":5123,
			"count":432,
			"type":"SCALAR"
		}
	],
	"bufferViews":[
		{
			"buffer":0,
			"byteLength":1152,
			"byteOffset":0,
			"target":34962
		},
		{
			"buffer":0,
			"byteLength":1152,
			"byteOffset":1152,
			"target":34962
		},
		{
			"buffer":0,
			"byteLength":768,
			"byteOffset":2304,
			"target":34962
		},
		{
			"buffer":0,
			"byteLength":726,
			"byteOffset":3072,
			"target":34963
		},
		{
			"buffer":0,
			"byteLength":972,
			"byteOffset":3800,
			"target":34962
		},
		{
			"buffer":0,
			"byteLength":972,
			"byteOffset":4772,
			"target":34962
		},
		{
			"buffer":0,
			"byteLength":648,
			"byteOffset":5744,
			"target":34962
		},
		{
			"buffer":0,
			"byteLength":864,
			"byteOffset":6392,
			"target":34963
		}
	],
	"samplers":[
		{
			"magFilter":9728,
			"minFilter":9984
		}
	],
	"buffers":[
		{
			"byteLength":7256,
			"uri":"Teleporter.bin"
		}
	]
}
