{
    "asset" : {
        "generator" : "Khronos glTF Blender I/O v3.2.43",
        "version" : "2.0"
    },
    "scene" : 0,
    "scenes" : [
        {
            "name" : "Scene",
            "nodes" : [
                0
            ]
        }
    ],
    "nodes" : [
        {
            "mesh" : 0,
            "name" : "Toilet",
            "rotation" : [
                0,
                0.7071068286895752,
                0,
                0.7071068286895752
            ],
            "scale" : [
                2.8441219329833984,
                2.8441219329833984,
                2.8441219329833984
            ],
            "translation" : [
                0,
                0.738797128200531,
                0.1582767814397812
            ]
        }
    ],
    "meshes" : [
        {
            "name" : "Cube.001",
            "primitives" : [
                {
                    "attributes" : {
                        "POSITION" : 0,
                        "NORMAL" : 1,
                        "TEXCOORD_0" : 2
                    },
                    "indices" : 3
                }
            ]
        }
    ],
    "accessors" : [
        {
            "bufferView" : 0,
            "componentType" : 5126,
            "count" : 995,
            "max" : [
                0.344656378030777,
                0.3474431335926056,
                0.18655751645565033
            ],
            "min" : [
                -0.2732519209384918,
                -0.25999999046325684,
                -0.18655751645565033
            ],
            "type" : "VEC3"
        },
        {
            "bufferView" : 1,
            "componentType" : 5126,
            "count" : 995,
            "type" : "VEC3"
        },
        {
            "bufferView" : 2,
            "componentType" : 5126,
            "count" : 995,
            "type" : "VEC2"
        },
        {
            "bufferView" : 3,
            "componentType" : 5123,
            "count" : 1638,
            "type" : "SCALAR"
        }
    ],
    "bufferViews" : [
        {
            "buffer" : 0,
            "byteLength" : 11940,
            "byteOffset" : 0
        },
        {
            "buffer" : 0,
            "byteLength" : 11940,
            "byteOffset" : 11940
        },
        {
            "buffer" : 0,
            "byteLength" : 7960,
            "byteOffset" : 23880
        },
        {
            "buffer" : 0,
            "byteLength" : 3276,
            "byteOffset" : 31840
        }
    ],
    "buffers" : [
        {
            "byteLength" : 35116,
            "uri" : "data:application/octet-stream;base64,"
        }
    ]
}
